PathFileType	4	(X/Y/Z)	c:/Users/goper/Files/vsCode/490R/osim_files/C17/C17_Slow_06.trc
DataRate	CameraRate	NumFrames	NumMarkers	Units                	OrigDataRate	OrigDataStartFrame	OrigNumFrames
250.00	250.00	9	36	mm	250.0	1411	2821
                Frame#	Time	LPSIS			LASIS			LTH1			LTH2			LTH3			LTH4			LLFE			LMFE			LSH1			LSH2			LSH3			LSH4			LLMAL			LMMAL			LCAL			LMTP5			LTOE			LMTP1			RPSIS			RASIS			RTH1			RTH2			RTH3			RTH4			RLFE			RMFE			RSH1			RSH2			RSH3			RSH4			RLMAL			RMMAL			RCAL			RMTP1			RTOE			RMTP5		
		X1	Y1	Z1	X2	Y2	Z2	X3	Y3	Z3	X4	Y4	Z4	X5	Y5	Z5	X6	Y6	Z6	X7	Y7	Z7	X8	Y8	Z8	X9	Y9	Z9	X10	Y10	Z10	X11	Y11	Z11	X12	Y12	Z12	X13	Y13	Z13	X14	Y14	Z14	X15	Y15	Z15	X16	Y16	Z16	X17	Y17	Z17	X18	Y18	Z18	X19	Y19	Z19	X20	Y20	Z20	X21	Y21	Z21	X22	Y22	Z22	X23	Y23	Z23	X24	Y24	Z24	X25	Y25	Z25	X26	Y26	Z26	X27	Y27	Z27	X28	Y28	Z28	X29	Y29	Z29	X30	Y30	Z30	X31	Y31	Z31	X32	Y32	Z32	X33	Y33	Z33	X34	Y34	Z34	X35	Y35	Z35	X36	Y36	Z36

1411	5.64000	53.06792	1075.77893	318.87469	-136.00386	1028.19202	419.50717	-149.70366	696.00470	459.53510	-174.06194	657.93738	456.77991	-205.46910	723.77747	466.15012	-222.96371	682.01733	462.66962	-218.05659	516.26678	440.37247	-233.34448	513.78851	312.94034	-41.30040	370.45746	436.65994	-17.35429	334.06628	434.28336	-89.74413	329.47668	437.86313	-57.96412	299.45798	433.61511	58.35837	206.28452	416.72238	35.15414	205.25941	329.07864	139.63298	214.29745	364.17773	-4.31512	92.28517	439.18884	-69.65459	83.10011	378.94608	-44.85350	73.47267	328.86319	45.22694	1075.37097	245.07367	-141.09349	1046.86475	151.26674	-115.56625	747.32953	104.29468	-122.51000	701.39655	112.16245	-173.10973	752.96191	121.01945	-173.65961	705.58826	124.08271	-164.03638	484.68521	153.33080	-131.64946	504.06686	274.28821	-75.04403	290.49319	152.10320	-75.44886	247.57141	169.32643	-135.80594	287.99399	168.23492	-126.69142	244.53426	181.25114	-55.05540	89.10780	215.05576	-76.91317	105.88268	304.63647	19.32666	53.81709	254.24492	-212.69464	41.93642	313.80121	-231.05736	63.39195	268.33701	-181.01991	36.93182	194.23611
1412	5.64400	48.15425	1076.41675	319.03192	-140.78114	1029.04346	419.27283	-156.56445	697.30841	459.91779	-180.70871	659.47522	456.92886	-212.94621	725.22595	467.04843	-230.15193	683.92090	462.72815	-226.24812	517.73346	440.44254	-241.66039	515.43256	313.08917	-52.13869	368.60962	436.38937	-29.03015	331.64148	434.08292	-101.36033	328.49161	438.09366	-70.61826	297.80939	433.78329	44.12982	202.30269	416.92468	21.13092	201.90880	328.74600	125.50456	207.97786	364.01279	-21.45435	90.17919	440.25845	-86.67986	82.64359	380.40442	-63.90954	71.75200	331.57990	40.46778	1076.11414	245.12996	-145.87779	1047.91675	151.20338	-118.48589	747.72498	104.43505	-125.09798	701.68292	112.21758	-176.41745	752.95819	121.16084	-176.35916	705.48071	124.24016	-164.95979	484.86816	153.29712	-132.39168	504.19879	274.49030	-75.67327	290.69009	152.27673	-76.09227	247.69937	169.48442	-136.44478	288.05505	168.38754	-127.36607	244.73059	181.34395	-55.35044	89.22765	215.10539	-77.05083	105.98048	304.71533	19.26952	54.07467	254.26895	-212.76025	41.88184	313.83847	-231.12260	63.16970	268.48389	-181.06424	36.95376	194.24217
1413	5.64800	43.53195	1077.29431	319.02829	-145.74129	1029.93030	419.03610	-163.43500	698.51050	460.43594	-187.19434	660.94861	456.95831	-219.71585	726.96478	467.19519	-237.06955	685.67499	462.89114	-234.29752	519.20135	440.51617	-249.76170	517.02759	313.23264	-62.99986	366.63019	436.14935	-40.60003	329.22592	433.88641	-112.94701	327.50751	438.25275	-82.83595	296.13757	433.99023	29.77220	198.21025	417.16690	6.33037	197.92377	328.99667	111.11155	201.69650	364.01590	-38.59999	87.85629	441.26355	-104.68384	82.04128	381.46164	-82.08180	70.15064	332.90735	35.59827	1076.52954	245.37944	-149.96817	1047.62976	150.78792	-122.07856	747.40564	103.03027	-127.98160	701.88495	112.25840	-179.95462	752.94940	120.96970	-179.24696	705.43774	124.32117	-166.16394	484.82025	153.56020	-133.40828	504.27914	274.57050	-76.35043	290.86572	152.47339	-76.68069	247.91498	169.62602	-137.02000	288.02515	168.57596	-127.96980	244.80440	181.51070	-55.51201	89.38490	215.17860	-77.16766	106.08910	304.81357	19.22612	54.35279	254.34065	-213.00409	41.80225	314.22107	-231.15291	63.08702	268.50208	-181.09036	36.95911	194.26711
1414	5.65200	38.47825	1077.59558	319.34079	-150.92250	1030.58667	418.73703	-172.09959	699.29651	460.16910	-195.45584	662.19647	458.57639	-226.31354	728.51465	467.45694	-243.81007	687.31641	463.06335	-242.35875	520.47992	440.51376	-257.77393	518.54260	313.36154	-73.85110	364.46350	435.90604	-52.34592	326.52646	433.82574	-124.41650	326.52280	438.35852	-95.34929	294.30197	434.07916	15.12324	193.89590	417.34964	-8.55915	194.07693	329.22900	96.48483	195.30017	363.88718	-55.79093	85.43774	442.19046	-122.27950	81.11195	382.74304	-100.08249	68.64309	334.09390	30.70872	1077.04492	245.56911	-154.76741	1048.91907	150.63725	-125.05579	747.62738	103.05070	-130.65714	702.08282	112.32586	-183.35490	752.88135	121.12386	-181.96078	705.31409	124.46420	-167.35298	484.79608	153.77914	-134.36931	504.40094	274.79678	-77.01705	291.02655	152.58788	-76.59989	248.52972	169.57613	-137.76759	288.00543	168.74887	-127.78963	244.21191	181.91287	-55.67150	89.55695	215.28838	-77.26207	106.12183	304.93039	19.20250	54.66138	254.39754	-213.07600	41.68763	314.26660	-231.26547	62.98410	268.55942	-181.13004	36.98228	194.29956
1415	5.65600	33.57474	1078.10925	319.55261	-155.94113	1031.27869	418.41376	-178.93689	700.46667	460.66125	-202.34137	663.50256	459.05551	-231.83482	731.01471	467.94867	-250.73930	688.98840	463.26990	-250.16982	521.77618	440.56372	-265.72122	519.93207	313.43124	-84.73853	361.60004	436.31281	-64.11905	323.75681	433.80457	-136.48900	325.09549	438.52051	-107.77471	292.46960	434.29721	0.31020	189.54382	417.50732	-23.71382	190.04411	329.50159	81.14898	188.93686	363.74884	-73.01402	82.93564	443.12524	-139.94859	80.07558	384.02017	-118.74583	66.65799	334.64944	25.99219	1077.64294	245.66798	-159.33916	1049.81921	150.40472	-128.16655	747.93848	102.98141	-133.39444	702.30927	112.34100	-186.26338	752.67682	121.22906	-184.71339	705.16351	124.57311	-168.63794	484.67517	153.99928	-135.69107	504.43259	274.87207	-77.78036	291.21698	152.70876	-77.11990	248.78249	169.75014	-138.59299	287.97690	168.88365	-128.29939	244.19539	182.14124	-55.82328	89.73584	215.37257	-77.59305	106.13305	304.49734	19.16191	54.96073	254.46565	-213.31367	41.46122	314.25775	-231.37712	62.84670	268.63434	-181.16116	36.99477	194.33623
1416	5.66000	28.74242	1078.59290	319.68713	-160.67371	1031.94482	418.24942	-185.61453	701.66327	461.19965	-209.21971	664.71735	459.63519	-239.52365	731.53192	467.77667	-257.82239	690.37054	463.28629	-257.84070	523.04236	440.56128	-273.46420	521.25867	313.58572	-95.75142	359.17340	436.30746	-75.91560	320.92648	433.64169	-148.07533	324.03247	438.86389	-120.39687	290.52460	434.41260	-14.56808	185.15904	417.68893	-39.00910	186.05870	329.73166	66.10307	182.44501	363.75513	-90.35782	80.36167	443.96573	-157.63272	78.61707	385.14786	-135.90114	64.48972	335.51959	21.03691	1077.89587	245.96109	-163.89973	1049.81824	150.31143	-131.22333	748.10529	103.02654	-136.24084	702.48395	112.35097	-189.54272	752.53107	121.32045	-187.57500	705.10394	124.69885	-169.90039	484.51898	154.29552	-136.94984	504.61841	275.07837	-78.38371	291.41211	152.91553	-78.65088	248.07646	169.70798	-139.21661	287.96127	168.99142	-130.01834	245.01888	181.39464	-56.01961	89.91698	215.44374	-77.38686	106.43495	305.07025	19.03987	55.22681	254.53214	-213.07838	41.76551	314.40271	-231.49820	62.72791	268.68997	-181.18625	37.00585	194.36404
1417	5.66400	23.80140	1079.01453	319.89825	-165.63138	1032.58582	418.05731	-192.26068	702.85370	461.69455	-215.96753	665.92474	460.13165	-246.14981	732.88837	468.05127	-264.57867	691.82678	463.51682	-265.60144	524.09076	440.61517	-280.87027	522.43695	313.72717	-106.86534	356.61725	436.37708	-87.72584	317.60187	433.61655	-159.99307	322.43723	439.02945	-132.91963	288.46368	434.63925	-29.68330	180.72366	417.88742	-54.37056	182.00282	330.00461	50.76282	176.07678	363.63602	-107.67770	77.75367	444.77899	-175.13811	77.75999	386.37079	-154.87619	63.06979	336.82687	16.12374	1078.23438	246.16560	-168.53671	1049.94678	149.97174	-134.27888	748.30518	103.05504	-138.94499	702.59662	112.38210	-192.50958	752.29498	121.41876	-189.21048	704.98749	124.07477	-171.23686	484.50378	154.37958	-138.48495	504.68387	275.17035	-79.13513	291.60333	153.05556	-78.87326	248.77112	170.20799	-139.91943	287.96457	169.09999	-130.20734	244.95323	182.12416	-56.22755	90.08826	215.52815	-77.21745	106.64418	305.15677	18.90268	55.44382	254.61945	-213.38130	41.43038	314.46735	-231.61179	62.58704	268.74713	-181.23395	36.99894	194.36581
1418	5.66800	19.01420	1079.37708	320.06979	-170.73705	1033.00879	417.87772	-198.76131	703.86432	462.16855	-224.64812	666.48273	459.13483	-252.59840	734.26801	468.20367	-270.93796	693.41962	463.66986	-272.96631	525.16370	440.62112	-288.71786	523.80450	313.94141	-117.88828	354.02783	436.36063	-99.71765	314.58200	433.59137	-171.64085	321.23163	439.22861	-145.33092	286.58411	434.90250	-44.89935	176.26480	418.02811	-70.38759	177.80333	330.37692	35.25520	169.66017	363.45834	-124.99137	75.15121	445.51614	-192.73427	76.58405	387.45432	-173.09683	61.36200	337.92273	11.85822	1078.66455	246.41823	-173.13863	1049.78918	149.76709	-137.50708	748.41376	103.38726	-141.74472	702.76086	112.44326	-195.77692	752.10608	121.49048	-192.22261	704.85571	124.43172	-172.55054	484.40414	154.58879	-140.04773	504.79633	275.33716	-79.97641	291.79129	153.22266	-79.59638	248.94011	170.32870	-140.75299	287.94843	169.22858	-130.94595	244.98601	182.22299	-56.38372	90.26546	215.56693	-77.43764	106.73830	305.25623	18.19333	55.29247	254.91422	-213.45619	41.35780	314.52402	-231.72191	62.45097	268.77921	-181.25978	37.01127	194.39441
1419	5.67200	14.13877	1079.68616	320.23825	-177.09352	1034.40527	417.91153	-205.26993	704.97998	462.75610	-231.25836	667.63605	459.55905	-258.87753	735.55841	468.35666	-277.58517	694.67828	463.72937	-280.16205	526.10736	440.62357	-295.52899	524.85681	314.13953	-128.86726	351.40170	436.31845	-111.73998	311.49164	433.57361	-183.33566	319.72244	439.49271	-158.00764	284.43793	435.10614	-60.12473	171.80379	418.18985	-85.53338	173.71535	330.46872	19.57407	163.35376	363.35336	-142.35745	72.56626	446.30869	-210.56982	75.54574	388.67432	-190.75706	59.51714	338.91864	6.52946	1078.77771	246.52597	-177.80843	1050.57922	149.36365	-140.40488	748.28949	103.90051	-144.63342	702.66864	112.64939	-198.80260	751.86761	121.51675	-195.15794	704.67957	124.46051	-173.95044	484.26065	154.74048	-141.39369	505.08743	275.56876	-80.70400	291.98846	153.31166	-80.22214	249.05142	170.45483	-141.60208	287.91281	169.29527	-131.59602	245.06883	182.26442	-56.58320	90.43214	215.62206	-77.59747	106.82296	305.32935	18.07821	55.58950	254.96053	-213.59535	41.41954	314.49841	-231.96622	62.13954	268.90698	-181.29887	36.98205	194.40987
